<?xml version="1.0" encoding="utf-8"?>
<svg viewBox="0 0 500 500" xmlns="http://www.w3.org/2000/svg">
  <defs>
    <linearGradient gradientUnits="userSpaceOnUse" x1="165.704" y1="172.182" x2="165.704" y2="267.182" id="gradient-0" gradientTransform="matrix(3.895416, 0, 0, 3.895416, -394.982483, -616.830853)">
      <stop offset="0" style="stop-color: rgb(39.216% 33.333% 85.49%)"/>
      <stop offset="1" style="stop-color: rgb(17.644% 17.375% 66.199%)"/>
    </linearGradient>
  </defs>
  <path d="M 403.709 208.344 C 410.956 208.344 417.15 203.59 419.291 197.009 L 430.473 197.009 C 433.276 197.009 435.536 194.75 435.536 191.944 C 435.536 189.14 433.276 186.882 430.473 186.882 L 419.291 186.882 C 417.15 180.297 410.956 175.545 403.709 175.545 L 397.438 175.545 L 397.438 162.065 L 403.709 162.065 C 410.956 162.065 417.15 157.314 419.291 150.732 L 430.473 150.732 C 433.276 150.732 435.536 148.472 435.536 145.667 C 435.536 142.904 433.276 140.605 430.473 140.605 L 419.291 140.605 C 417.15 134.059 410.995 129.268 403.709 129.268 L 373.521 129.268 L 370.989 126.54 L 370.989 85.716 C 370.989 78.471 366.236 72.277 359.652 70.135 L 359.652 58.955 C 359.652 56.151 357.394 53.891 354.588 53.891 C 351.785 53.891 349.525 56.151 349.525 58.955 L 349.525 70.135 C 342.941 72.277 338.19 78.471 338.19 85.716 L 338.19 99.079 L 318.946 99.079 L 318.946 85.716 C 318.946 78.471 314.194 72.277 307.612 70.135 L 307.612 58.955 C 307.612 56.151 305.351 53.891 302.547 53.891 C 299.742 53.891 297.481 56.151 297.481 58.955 L 297.481 70.135 C 290.9 72.277 286.147 78.471 286.147 85.716 L 286.147 99.079 L 266.904 99.079 L 266.904 85.716 C 266.904 78.471 262.15 72.277 255.567 70.135 L 255.567 58.955 C 255.567 56.151 253.307 53.891 250.504 53.891 C 247.701 53.891 245.44 56.151 245.44 58.955 L 245.44 70.135 C 238.894 72.277 234.103 78.471 234.103 85.716 L 234.103 99.079 L 214.861 99.079 L 214.861 85.716 C 214.861 78.471 210.109 72.277 203.524 70.135 L 203.524 58.955 C 203.524 56.151 201.266 53.891 198.462 53.891 C 195.656 53.891 193.395 56.151 193.395 58.955 L 193.395 70.135 C 186.854 72.277 182.061 78.471 182.061 85.716 L 182.061 99.079 L 162.816 99.079 L 162.816 85.716 C 162.816 78.471 158.065 72.277 151.482 70.135 L 151.482 58.955 C 151.482 56.151 149.223 53.891 146.418 53.891 C 143.612 53.891 141.355 56.151 141.355 58.955 L 141.355 70.135 C 134.81 72.277 130.018 78.471 130.018 85.716 L 130.018 126.54 L 127.525 129.268 L 97.296 129.268 C 90.051 129.268 83.857 134.059 81.715 140.605 L 70.535 140.605 C 67.731 140.605 65.471 142.904 65.471 145.667 C 65.471 148.472 67.731 150.732 70.535 150.732 L 81.715 150.732 C 83.857 157.314 90.051 162.065 97.296 162.065 L 103.57 162.065 L 103.57 175.545 L 97.296 175.545 C 90.051 175.545 83.857 180.297 81.715 186.882 L 70.535 186.882 C 67.731 186.882 65.471 189.14 65.471 191.944 C 65.471 194.75 67.731 197.009 70.535 197.009 L 81.715 197.009 C 83.857 203.59 90.051 208.344 97.296 208.344 L 103.57 208.344 L 103.57 221.823 L 97.296 221.823 C 90.051 221.823 83.857 226.575 81.715 233.158 L 70.535 233.158 C 67.731 233.158 65.471 235.418 65.471 238.221 C 65.471 240.988 67.731 243.285 70.535 243.285 L 81.715 243.285 C 83.857 249.829 90.051 254.622 97.296 254.622 L 103.57 254.622 L 103.57 268.061 L 97.296 268.061 C 90.051 268.061 83.857 272.852 81.715 279.437 L 70.535 279.437 C 67.731 279.437 65.471 281.695 65.471 284.499 C 65.471 287.305 67.731 289.564 70.535 289.564 L 81.715 289.564 C 83.857 296.108 90.051 300.899 97.296 300.899 L 103.57 300.899 L 103.57 314.377 L 97.296 314.377 C 90.051 314.377 83.857 319.13 81.715 325.676 L 70.535 325.676 C 67.731 325.676 65.471 327.972 65.471 330.778 C 65.471 333.543 67.731 335.802 70.535 335.802 L 81.715 335.802 C 83.857 342.386 90.051 347.138 97.296 347.138 L 126.161 347.138 L 130.018 351.306 L 130.018 392.129 C 130.018 399.376 134.81 405.57 141.355 407.711 L 141.355 418.893 C 141.355 421.696 143.612 423.956 146.418 423.956 C 149.223 423.956 151.482 421.696 151.482 418.893 L 151.482 407.711 C 158.065 405.57 162.816 399.376 162.816 392.129 L 162.816 378.769 L 182.061 378.769 L 182.061 392.129 C 182.061 399.376 186.854 405.57 193.395 407.711 L 193.395 418.893 C 193.395 421.696 195.656 423.956 198.462 423.956 C 201.266 423.956 203.524 421.696 203.524 418.893 L 203.524 407.711 C 210.109 405.57 214.861 399.376 214.861 392.129 L 214.861 378.769 L 234.103 378.769 L 234.103 392.129 C 234.103 399.376 238.894 405.57 245.44 407.711 L 245.44 418.893 C 245.44 421.696 247.701 423.956 250.504 423.956 C 253.307 423.956 255.567 421.696 255.567 418.893 L 255.567 407.711 C 262.15 405.57 266.904 399.376 266.904 392.129 L 266.904 378.769 L 286.147 378.769 L 286.147 392.129 C 286.147 399.376 290.9 405.57 297.481 407.711 L 297.481 418.893 C 297.481 421.696 299.742 423.956 302.547 423.956 C 305.351 423.956 307.612 421.696 307.612 418.893 L 307.612 407.711 C 314.194 405.57 318.946 399.376 318.946 392.129 L 318.946 378.769 L 338.19 378.769 L 338.19 392.129 C 338.19 399.376 342.941 405.57 349.525 407.711 L 349.525 418.893 C 349.525 421.696 351.785 423.956 354.588 423.956 C 357.394 423.956 359.652 421.696 359.652 418.893 L 359.652 407.711 C 366.236 405.57 370.989 399.376 370.989 392.129 L 370.989 351.306 L 374.846 347.138 L 403.709 347.138 C 410.956 347.138 417.15 342.386 419.291 335.802 L 430.473 335.802 C 433.276 335.802 435.536 333.543 435.536 330.778 C 435.536 327.972 433.276 325.676 430.473 325.676 L 419.291 325.676 C 417.15 319.13 410.956 314.377 403.709 314.377 L 397.438 314.377 L 397.438 300.899 L 403.709 300.899 C 410.956 300.899 417.15 296.108 419.291 289.564 L 430.473 289.564 C 433.276 289.564 435.536 287.305 435.536 284.499 C 435.536 281.695 433.276 279.437 430.473 279.437 L 419.291 279.437 C 417.15 272.852 410.995 268.061 403.709 268.061 L 397.438 268.061 L 397.438 254.622 L 403.709 254.622 C 410.995 254.622 417.15 249.829 419.291 243.285 L 430.473 243.285 C 433.276 243.285 435.536 240.988 435.536 238.221 C 435.536 235.418 433.276 233.158 430.473 233.158 L 419.291 233.158 C 417.15 226.575 410.956 221.823 403.709 221.823 L 397.438 221.823 L 397.438 208.344 L 403.709 208.344 Z M 387.311 318.858 L 341.033 368.642 L 159.975 368.642 L 113.697 318.858 L 113.697 158.988 L 159.975 109.207 L 341.033 109.207 L 387.311 158.988 L 387.311 318.858 Z M 403.709 231.95 C 407.177 231.95 409.981 234.755 409.981 238.221 C 409.981 241.689 407.177 244.495 403.709 244.495 L 397.438 244.495 L 397.438 231.95 L 403.709 231.95 Z M 337.099 123.269 L 373.482 162.456 C 374.378 163.391 374.846 164.599 374.846 165.884 L 374.846 311.962 C 374.846 313.248 374.378 314.455 373.482 315.43 L 337.099 354.579 C 336.164 355.592 334.8 356.175 333.399 356.175 L 167.609 356.175 C 166.207 356.175 164.843 355.592 163.908 354.579 L 127.486 315.43 C 126.627 314.494 126.123 313.248 126.123 311.962 L 126.123 165.884 C 126.123 164.599 126.627 163.391 127.486 162.456 L 163.908 123.269 C 164.843 122.256 166.207 121.672 167.609 121.672 L 333.399 121.672 C 334.8 121.672 336.164 122.256 337.099 123.269 Z" style="fill-rule: nonzero; paint-order: fill; fill: url('#gradient-0'); fill-opacity: 0.77;" transform="matrix(1, 0, 0, 1, 1.4210854715202004e-14, 2.842170943040401e-14)"/>
</svg>