<?xml version="1.0" encoding="utf-8"?>
<svg viewBox="0 0 500 500" xmlns="http://www.w3.org/2000/svg">
  <defs>
    <linearGradient gradientUnits="userSpaceOnUse" x1="250.552" y1="62.278" x2="250.552" y2="439.695" id="gradient-0">
      <stop offset="0" style="stop-color: rgb(30.98% 26.275% 67.843%)"/>
      <stop offset="1" style="stop-color: rgb(14.946% 14.114% 53.189%)"/>
    </linearGradient>
  </defs>
  <path d="M 244.347 271.471 C 244.347 289.248 229.881 303.715 212.103 303.715 C 194.308 303.715 179.837 289.248 179.837 271.471 C 179.837 253.679 194.313 239.205 212.103 239.205 C 229.881 239.205 244.347 253.679 244.347 271.471 Z M 457.216 251.24 L 457.216 288.021 C 457.216 291.137 454.688 293.672 451.565 293.672 L 391.27 293.672 C 388.147 293.672 385.611 291.137 385.611 288.021 L 385.611 251.24 C 385.611 248.124 388.147 245.587 391.27 245.587 L 399.046 245.587 L 399.046 230.446 C 399.046 227.323 401.581 224.795 404.706 224.795 L 415.757 224.795 L 415.757 144.809 C 415.757 105.534 383.805 73.573 344.538 73.573 C 314.736 73.573 288.316 92.181 277.914 119.636 L 305.489 119.636 L 320.222 104.912 C 321.649 103.485 323.733 102.928 325.677 103.441 L 365.47 114.088 C 367.424 114.605 368.951 116.128 369.473 118.082 L 380.136 157.875 C 380.663 159.828 380.098 161.912 378.667 163.34 L 363.917 178.071 L 363.917 364.822 L 378.675 379.58 C 380.102 381.007 380.659 383.091 380.136 385.036 L 369.473 424.837 C 368.947 426.782 367.424 428.309 365.474 428.836 L 325.673 439.499 C 325.19 439.629 324.703 439.695 324.211 439.695 C 322.732 439.695 321.288 439.112 320.212 438.042 L 305.454 423.284 L 118.734 423.284 L 103.976 438.042 C 102.902 439.116 101.457 439.695 99.973 439.695 C 99.49 439.695 98.995 439.629 98.511 439.499 L 58.719 428.836 C 56.766 428.309 55.239 426.786 54.724 424.833 L 44.078 385.04 C 43.56 383.086 44.117 381.011 45.55 379.584 L 60.272 364.853 L 60.272 178.071 L 45.55 163.34 C 44.122 161.916 43.565 159.836 44.086 157.892 L 54.73 118.091 C 55.247 116.138 56.77 114.61 58.723 114.096 L 98.524 103.45 C 100.47 102.932 102.554 103.489 103.972 104.92 L 118.703 119.644 L 265.945 119.644 C 276.865 85.646 308.57 62.278 344.512 62.278 C 390.044 62.278 427.056 99.299 427.056 144.813 L 427.056 224.799 L 438.134 224.799 C 441.257 224.799 443.785 227.327 443.785 230.45 L 443.785 245.596 L 451.569 245.596 C 454.688 245.587 457.216 248.124 457.216 251.24 Z M 73.051 152.623 C 73.051 158.031 75.157 163.1 78.968 166.903 C 82.788 170.731 87.856 172.837 93.255 172.837 C 98.664 172.837 103.732 170.731 107.535 166.92 C 111.36 163.1 113.47 158.031 113.47 152.623 C 113.47 147.224 111.364 142.147 107.553 138.347 C 103.732 134.523 98.664 132.414 93.255 132.414 C 87.865 132.414 82.783 134.519 78.977 138.339 C 75.157 142.151 73.051 147.228 73.051 152.623 Z M 71.58 353.531 L 89.775 335.327 C 79.755 316.227 74.09 294.495 74.09 271.471 C 74.09 248.437 79.759 226.704 89.784 207.595 L 71.58 189.383 L 71.58 353.531 Z M 113.47 390.295 C 113.47 384.897 111.364 379.824 107.545 376.017 C 103.732 372.192 98.655 370.082 93.255 370.082 C 87.856 370.082 82.783 372.196 78.985 376.008 C 75.161 379.819 73.051 384.897 73.051 390.295 C 73.051 395.695 75.157 400.777 78.968 404.571 C 82.788 408.404 87.856 410.514 93.255 410.514 C 98.664 410.514 103.732 408.409 107.535 404.588 C 111.364 400.777 113.47 395.695 113.47 390.295 Z M 294.159 411.98 L 275.965 393.785 C 256.865 403.797 235.132 409.462 212.108 409.462 C 189.075 409.462 167.342 403.791 148.233 393.776 L 130.029 411.98 L 294.159 411.98 Z M 351.147 390.295 C 351.147 384.897 349.041 379.819 345.221 376.025 C 341.409 372.196 336.332 370.082 330.933 370.082 C 325.533 370.082 320.46 372.187 316.653 376.017 C 312.829 379.828 310.719 384.897 310.719 390.295 C 310.719 395.695 312.834 400.777 316.645 404.571 C 320.456 408.404 325.533 410.514 330.933 410.514 C 336.332 410.514 341.409 408.409 345.209 404.588 C 349.037 400.777 351.147 395.695 351.147 390.295 Z M 352.614 189.37 L 350.199 191.785 L 334.41 207.601 C 344.429 226.708 350.094 248.441 350.094 271.475 C 350.094 294.5 344.425 316.231 334.418 335.332 L 352.614 353.527 L 352.614 189.37 Z M 310.715 152.623 C 310.715 158.031 312.829 163.1 316.641 166.903 C 320.452 170.731 325.529 172.837 330.929 172.837 C 336.328 172.837 341.405 170.731 345.203 166.92 C 349.037 163.1 351.147 158.031 351.147 152.623 C 351.147 147.233 349.041 142.151 345.213 138.343 C 341.402 134.523 336.332 132.418 330.933 132.418 C 325.533 132.418 320.456 134.523 316.662 138.335 C 312.834 142.141 310.715 147.22 310.715 152.623 Z M 254.915 279.498 C 255.398 276.901 255.659 274.212 255.659 271.475 C 255.659 270.039 255.586 268.616 255.451 267.22 C 254.724 259.728 252.092 252.792 248.05 246.893 C 245.726 243.495 242.925 240.44 239.752 237.826 C 246.462 221.558 247.366 200.87 242.007 180.895 C 238.43 167.543 232.343 155.303 224.36 145.357 C 220.33 144.97 216.246 144.77 212.112 144.77 C 187.264 144.77 164.071 151.962 144.487 164.379 C 154.868 166.803 165.171 170.893 174.851 176.487 C 196.941 189.243 213.261 208.091 220.14 228.645 C 217.542 228.162 214.853 227.901 212.116 227.901 C 210.681 227.901 209.258 227.976 207.861 228.11 C 200.37 228.837 193.434 231.468 187.534 235.515 C 184.136 237.838 181.082 240.64 178.476 243.812 C 162.208 237.104 141.512 236.198 121.544 241.549 C 108.219 245.126 95.979 251.204 85.998 259.196 C 85.612 263.234 85.412 267.324 85.412 271.467 C 85.412 296.314 92.604 319.508 105.021 339.086 C 107.445 328.696 111.534 318.394 117.128 308.709 C 129.885 286.628 148.733 270.305 169.286 263.43 C 168.804 266.036 168.543 268.725 168.543 271.471 C 168.543 272.898 168.617 274.294 168.752 275.691 L 168.752 275.699 C 169.469 283.192 172.102 290.136 176.153 296.035 C 178.476 299.433 181.278 302.487 184.449 305.094 C 177.74 321.362 176.835 342.067 182.187 362.046 C 185.763 375.36 191.841 387.598 199.834 397.566 C 203.872 397.954 207.961 398.153 212.103 398.153 C 236.951 398.153 260.144 390.962 279.724 378.545 C 269.334 376.121 259.032 372.031 249.347 366.436 C 227.266 353.679 210.942 334.823 204.067 314.278 C 206.674 314.762 209.362 315.023 212.108 315.023 C 213.534 315.023 214.94 314.948 216.336 314.814 C 223.828 314.095 230.772 311.463 236.673 307.412 C 240.079 305.09 243.129 302.287 245.739 299.116 C 262.007 305.816 282.705 306.721 302.688 301.369 C 316.001 297.802 328.24 291.715 338.207 283.722 C 338.595 279.694 338.795 275.608 338.795 271.475 C 338.795 246.628 331.603 223.424 319.186 203.842 C 316.762 214.222 312.673 224.524 307.077 234.209 C 294.321 256.294 275.465 272.61 254.915 279.498 Z M 130.021 130.948 L 148.233 149.151 C 167.342 139.123 189.075 133.458 212.108 133.458 C 235.132 133.458 256.865 139.127 275.965 149.143 L 294.169 130.948 L 130.021 130.948 Z" style="fill: url('#gradient-0'); fill-opacity: 0.77;" transform="matrix(1, 0, 0, 1, 1.4210854715202004e-14, 2.842170943040401e-14)"/>
</svg>