<?xml version="1.0" encoding="utf-8"?>
<svg viewBox="0 0 500 500" xmlns="http://www.w3.org/2000/svg">
  <defs>
    <linearGradient gradientUnits="userSpaceOnUse" x1="245.179" y1="100" x2="245.179" y2="400" id="gradient-0">
      <stop offset="0" style="stop-color: rgb(30.98% 26.275% 67.843%)"/>
      <stop offset="1" style="stop-color: rgb(14.946% 14.114% 53.189%)"/>
    </linearGradient>
  </defs>
  <path d="M 305.843 320.822 L 311.025 336.78 L 251.157 336.78 L 256.339 320.822 L 305.843 320.822 Z M 305.843 161.571 L 311.025 145.611 L 251.157 145.611 L 256.339 161.571 L 305.843 161.571 Z M 457.401 170.476 L 457.401 311.922 C 457.401 325.625 446.258 336.784 432.564 336.784 L 323.237 336.784 L 315.582 313.235 C 314.805 310.841 312.57 309.224 310.06 309.224 L 252.113 309.224 C 249.602 309.224 247.372 310.841 246.591 313.235 L 238.938 336.784 L 104.752 336.784 L 104.752 145.611 L 238.941 145.611 L 246.595 169.162 C 247.372 171.556 249.606 173.174 252.118 173.174 L 310.065 173.174 C 312.576 173.174 314.805 171.556 315.588 169.162 L 323.241 145.611 L 432.569 145.611 C 446.258 145.611 457.401 156.764 457.401 170.476 Z M 115.585 163.304 C 115.585 168.139 119.518 172.074 124.346 172.074 C 129.177 172.074 133.109 168.139 133.109 163.304 C 133.109 158.488 129.177 154.565 124.346 154.565 C 119.518 154.565 115.585 158.488 115.585 163.304 Z M 133.109 314.947 C 133.109 310.112 129.177 306.185 124.346 306.185 C 119.518 306.185 115.585 310.112 115.585 314.947 C 115.585 319.772 119.518 323.695 124.346 323.695 C 129.177 323.695 133.109 319.772 133.109 314.947 Z M 260.571 241.183 C 260.571 201.209 228.05 168.689 188.076 168.689 C 148.111 168.689 115.585 201.209 115.585 241.183 C 115.585 281.157 148.107 313.677 188.076 313.677 C 228.05 313.677 260.571 281.157 260.571 241.183 Z M 446.575 314.947 C 446.575 310.112 442.639 306.185 437.803 306.185 C 432.988 306.185 429.064 310.112 429.064 314.947 C 429.064 319.772 432.988 323.695 437.803 323.695 C 442.634 323.69 446.575 319.772 446.575 314.947 Z M 446.575 241.183 C 446.575 201.209 414.054 168.689 374.08 168.689 C 334.107 168.689 301.585 201.209 301.585 241.183 C 301.585 281.157 334.107 313.677 374.08 313.677 C 414.054 313.677 446.575 281.157 446.575 241.183 Z M 446.575 163.304 C 446.575 158.488 442.639 154.565 437.803 154.565 C 432.988 154.565 429.064 158.488 429.064 163.304 C 429.064 168.139 432.988 172.074 437.803 172.074 C 442.634 172.074 446.575 168.139 446.575 163.304 Z M 87.341 100 L 38.761 100 C 35.563 100 32.958 102.595 32.958 105.805 C 32.958 109.012 35.563 111.607 38.761 111.607 L 81.537 111.607 L 81.537 149.932 L 54.86 149.932 C 51.66 149.932 49.055 152.537 49.055 155.744 C 49.055 158.944 51.66 161.549 54.86 161.549 L 81.537 161.549 L 81.537 177.575 L 54.86 177.575 C 51.66 177.575 49.055 180.171 49.055 183.378 L 49.055 239.214 C 49.055 242.421 51.66 245.016 54.86 245.016 L 81.537 245.016 L 81.537 265.609 L 54.86 265.609 C 51.66 265.609 49.055 268.205 49.055 271.412 C 49.055 274.611 51.66 277.217 54.86 277.217 L 81.537 277.217 L 81.537 293.215 L 54.86 293.215 C 51.66 293.215 49.055 295.821 49.055 299.019 L 49.055 354.875 C 49.055 358.083 51.66 360.688 54.86 360.688 L 81.537 360.688 L 81.537 394.197 C 81.537 397.405 84.132 400 87.341 400 C 90.539 400 93.144 397.405 93.144 394.197 L 93.144 105.805 C 93.144 102.595 90.539 100 87.341 100 Z M 155.742 383.689 L 170.714 383.689 L 170.714 366.04 C 170.714 362.833 173.31 360.238 176.518 360.238 C 179.726 360.238 182.321 362.833 182.321 366.04 L 182.321 383.689 L 193.861 383.689 L 193.861 366.04 C 193.861 362.833 196.457 360.238 199.666 360.238 C 202.873 360.238 205.469 362.833 205.469 366.04 L 205.469 383.689 L 216.983 383.689 L 216.983 366.04 C 216.983 362.833 219.586 360.238 222.786 360.238 C 225.995 360.238 228.591 362.833 228.591 366.04 L 228.591 383.689 L 240.131 383.689 L 240.131 366.04 C 240.131 362.833 242.735 360.238 245.935 360.238 C 249.142 360.238 251.747 362.833 251.747 366.04 L 251.747 383.689 L 263.277 383.689 L 263.277 366.04 C 263.277 362.833 265.882 360.238 269.091 360.238 C 272.289 360.238 274.894 362.833 274.894 366.04 L 274.894 383.689 L 289.857 383.689 L 289.857 348.387 L 155.742 348.387 L 155.742 383.689 Z M 342.136 383.689 L 358.451 383.689 L 358.451 366.04 C 358.451 362.833 361.048 360.238 364.255 360.238 C 367.463 360.238 370.059 362.833 370.059 366.04 L 370.059 383.689 L 386.39 383.689 L 386.39 348.387 L 342.136 348.387 L 342.136 383.689 Z M 420.286 201.59 C 419.482 207.16 417.486 212.822 414.452 218.093 C 410.273 225.314 404.443 231.175 398.122 234.7 C 398.684 236.764 398.983 238.944 398.983 241.183 C 398.983 243.354 398.702 245.458 398.179 247.465 L 398.179 247.474 C 397.617 249.645 396.763 251.699 395.65 253.599 C 393.501 257.338 390.396 260.47 386.67 262.66 C 392.609 265.336 399.394 266.689 406.508 266.689 C 411.556 266.689 416.779 266.011 421.975 264.625 C 425.308 263.723 428.533 262.552 431.589 261.145 C 433.283 256.298 434.372 251.165 434.78 245.842 C 434.896 244.311 434.954 242.75 434.954 241.183 C 434.954 231.666 432.756 222.655 428.842 214.632 L 428.842 214.622 C 426.554 209.904 423.668 205.525 420.286 201.59 Z M 349.167 241.183 C 349.167 239.019 349.449 236.911 349.972 234.905 C 350.535 232.734 351.387 230.679 352.491 228.789 C 354.645 225.041 357.754 221.909 361.476 219.729 C 351.321 215.166 338.685 214.43 326.176 217.772 C 322.825 218.675 319.603 219.844 316.543 221.26 C 314.851 226.108 313.76 231.233 313.358 236.554 C 313.241 238.078 313.183 239.623 313.183 241.178 C 313.183 250.704 315.382 259.706 319.301 267.74 L 319.301 267.748 C 321.587 272.467 324.483 276.849 327.874 280.789 C 328.66 275.219 330.657 269.566 333.695 264.295 C 337.872 257.084 343.703 251.222 350.034 247.683 C 349.462 245.606 349.167 243.43 349.167 241.183 Z M 380.558 265.234 C 378.494 265.796 376.313 266.096 374.075 266.096 C 371.904 266.096 369.799 265.814 367.793 265.29 C 365.631 264.729 363.577 263.874 361.678 262.772 C 357.929 260.623 354.797 257.516 352.608 253.792 C 348.041 263.974 347.308 276.603 350.651 289.065 C 351.543 292.407 352.706 295.633 354.131 298.706 C 358.978 300.404 364.112 301.489 369.434 301.896 C 370.965 302.013 372.516 302.069 374.075 302.069 C 383.592 302.069 392.604 299.872 400.629 295.957 C 405.345 293.671 409.729 290.776 413.67 287.394 C 408.089 286.58 402.428 284.583 397.165 281.549 C 389.945 277.394 384.075 271.563 380.558 265.234 Z M 367.592 217.154 C 369.657 216.592 371.838 216.292 374.075 216.292 C 376.247 216.292 378.351 216.574 380.357 217.098 C 382.529 217.659 384.584 218.514 386.482 219.608 C 390.231 221.771 393.364 224.88 395.543 228.601 C 400.11 218.419 400.833 205.78 397.492 193.327 C 396.601 189.977 395.436 186.739 394.01 183.655 C 389.154 181.962 384.031 180.872 378.701 180.474 L 378.691 180.474 C 377.168 180.358 375.62 180.3 374.071 180.3 C 364.546 180.3 355.525 182.498 347.492 186.416 C 342.774 188.712 338.401 191.599 334.459 194.99 C 340.004 195.777 345.67 197.778 350.982 200.834 C 358.21 205.003 364.072 210.832 367.592 217.154 Z M 374.075 227.909 C 366.74 227.909 360.769 233.86 360.769 241.183 C 360.769 248.518 366.74 254.489 374.075 254.489 C 381.403 254.489 387.371 248.518 387.371 241.183 C 387.376 233.86 381.406 227.909 374.075 227.909 Z M 228.455 218.093 C 224.278 225.314 218.448 231.175 212.126 234.7 C 212.689 236.764 212.989 238.944 212.989 241.183 C 212.989 243.354 212.707 245.458 212.185 247.465 L 212.185 247.474 C 211.621 249.645 210.769 251.699 209.656 253.599 C 207.506 257.347 204.392 260.479 200.67 262.66 C 206.612 265.336 213.404 266.689 220.517 266.689 C 225.565 266.689 230.78 266.011 235.98 264.625 C 239.314 263.732 242.538 262.57 245.594 261.154 C 247.293 256.307 248.387 251.182 248.794 245.86 C 248.909 244.319 248.967 242.76 248.967 241.183 C 248.967 231.666 246.769 222.655 242.855 214.632 C 240.568 209.914 237.673 205.535 234.291 201.598 C 233.487 207.16 231.489 212.83 228.455 218.093 Z M 163.194 241.183 C 163.194 239.019 163.477 236.911 163.999 234.905 C 164.561 232.743 165.406 230.684 166.51 228.794 C 168.659 225.045 171.76 221.913 175.482 219.723 C 165.334 215.163 152.71 214.425 140.208 217.766 C 136.857 218.669 133.618 219.84 130.539 221.256 L 130.539 221.266 C 128.854 226.113 127.76 231.229 127.362 236.554 C 127.246 238.078 127.189 239.623 127.189 241.178 C 127.189 250.704 129.388 259.706 133.305 267.74 L 133.305 267.748 C 135.592 272.467 138.488 276.849 141.88 280.789 C 142.665 275.209 144.663 269.558 147.731 264.295 C 151.887 257.074 157.713 251.204 164.052 247.675 C 163.494 245.602 163.194 243.43 163.194 241.183 Z M 194.554 265.234 C 192.49 265.796 190.311 266.096 188.071 266.096 C 185.91 266.096 183.801 265.814 181.793 265.29 C 179.622 264.729 177.568 263.874 175.669 262.762 C 171.921 260.608 168.789 257.49 166.608 253.76 C 162.042 263.942 161.31 276.599 164.661 289.082 C 165.553 292.424 166.725 295.65 168.141 298.715 C 172.988 300.409 178.104 301.494 183.421 301.896 L 183.429 301.896 C 184.962 302.013 186.511 302.069 188.071 302.069 C 197.596 302.069 206.6 299.872 214.632 295.954 L 214.642 295.954 C 219.36 293.666 223.729 290.779 227.665 287.388 C 222.085 286.584 216.433 284.589 211.183 281.554 C 203.95 277.394 198.079 271.563 194.554 265.234 Z M 181.598 217.154 C 183.662 216.592 185.833 216.292 188.071 216.292 C 190.252 216.292 192.365 216.574 194.37 217.106 C 196.534 217.669 198.589 218.514 200.483 219.616 C 204.231 221.765 207.373 224.872 209.553 228.601 C 214.12 218.419 214.842 205.789 211.501 193.327 C 210.611 189.977 209.437 186.739 208.011 183.655 C 203.164 181.962 198.031 180.876 192.708 180.474 L 192.701 180.474 C 191.177 180.358 189.63 180.3 188.076 180.3 C 178.55 180.3 169.53 182.498 161.498 186.416 L 161.488 186.416 C 156.77 188.712 152.409 191.599 148.474 194.99 C 154.018 195.777 159.683 197.778 164.995 200.834 C 172.216 205.003 178.077 210.832 181.598 217.154 Z M 188.071 227.909 C 180.753 227.909 174.797 233.86 174.797 241.183 C 174.797 248.518 180.749 254.489 188.071 254.489 C 195.409 254.489 201.377 248.518 201.377 241.183 C 201.377 233.86 195.409 227.909 188.071 227.909 Z" style="fill: url('#gradient-0'); fill-opacity: 0.77;"/>
</svg>