<?xml version="1.0" encoding="utf-8"?>
<svg viewBox="0 0 500 500" xmlns="http://www.w3.org/2000/svg">
  <defs>
    <linearGradient gradientUnits="userSpaceOnUse" x1="244.79" y1="67.525" x2="244.79" y2="440.509" id="gradient-0">
      <stop offset="0" style="stop-color: rgb(30.98% 26.275% 67.843%)"/>
      <stop offset="1" style="stop-color: rgb(14.946% 14.114% 53.189%)"/>
    </linearGradient>
  </defs>
  <path d="M 195.715 186.131 L 140.185 186.131 C 137.162 186.131 134.699 183.669 134.699 180.646 L 134.699 125.116 C 134.699 122.083 137.162 119.63 140.185 119.63 L 195.715 119.63 C 198.746 119.63 201.201 122.083 201.201 125.116 L 201.201 180.646 C 201.201 183.669 198.746 186.131 195.715 186.131 Z M 445.387 73.006 L 445.387 435.023 C 445.387 438.055 442.934 440.509 439.902 440.509 L 77.886 440.509 C 74.862 440.509 72.4 438.055 72.4 435.023 L 72.4 281.303 L 49.68 281.303 C 46.651 281.303 44.194 278.844 44.194 275.815 L 44.194 229.641 C 44.194 226.609 46.651 224.156 49.68 224.156 L 72.4 224.156 L 72.4 208.964 L 49.68 208.964 C 46.651 208.964 44.194 206.507 44.194 203.48 C 44.194 200.446 46.651 197.993 49.68 197.993 L 72.4 197.993 L 72.4 182.423 L 49.68 182.423 C 46.651 182.423 44.194 179.965 44.194 176.938 L 44.194 130.758 C 44.194 127.725 46.651 125.271 49.68 125.271 L 72.4 125.271 L 72.4 110.082 L 49.68 110.082 C 46.651 110.082 44.194 107.623 44.194 104.596 C 44.194 101.568 46.651 99.109 49.68 99.109 L 72.4 99.109 L 72.4 73.011 C 72.4 69.978 74.862 67.525 77.886 67.525 L 439.902 67.525 C 442.934 67.525 445.387 69.975 445.387 73.006 Z M 72.4 235.127 L 55.165 235.127 L 55.165 270.331 L 72.4 270.331 L 72.4 235.127 Z M 72.4 136.243 L 55.165 136.243 L 55.165 171.447 L 72.4 171.447 L 72.4 136.243 Z M 120.041 311.156 L 106.143 311.156 L 106.143 395.465 L 120.041 395.465 L 120.041 311.156 Z M 125.703 261.42 C 125.703 256.03 121.324 251.648 115.933 251.648 C 110.534 251.648 106.138 256.027 106.138 261.42 C 106.138 266.808 110.534 271.192 115.933 271.192 C 121.324 271.192 125.703 266.813 125.703 261.42 Z M 162.022 311.156 L 148.116 311.156 L 148.116 395.465 L 162.022 395.465 L 162.022 311.156 Z M 181.432 251.652 L 161.892 251.652 L 161.892 271.192 L 181.432 271.192 L 181.432 251.652 Z M 183.054 206.65 L 191.318 206.65 L 191.318 219.088 C 191.318 222.12 193.772 224.581 196.804 224.581 C 199.836 224.581 202.29 222.12 202.29 219.088 L 202.29 206.65 L 216.239 206.65 C 219.27 206.65 221.732 204.197 221.732 201.165 L 221.732 189.239 L 229.036 189.239 C 232.066 189.239 234.521 186.776 234.521 183.744 C 234.521 180.72 232.066 178.259 229.036 178.259 L 221.732 178.259 L 221.732 169.999 L 229.036 169.999 C 232.066 169.999 234.521 167.537 234.521 164.512 C 234.521 161.481 232.066 159.027 229.036 159.027 L 221.732 159.027 L 221.732 150.762 L 229.036 150.762 C 232.066 150.762 234.521 148.309 234.521 145.277 C 234.521 142.243 232.066 139.79 229.036 139.79 L 221.732 139.79 L 221.732 131.547 L 229.036 131.547 C 232.066 131.547 234.521 129.094 234.521 126.061 C 234.521 123.029 232.066 120.575 229.036 120.575 L 221.732 120.575 L 221.732 104.583 C 221.732 101.551 219.27 99.096 216.239 99.096 L 202.29 99.096 L 202.29 90.71 C 202.29 87.677 199.836 85.224 196.804 85.224 C 193.772 85.224 191.318 87.677 191.318 90.71 L 191.318 99.109 L 183.054 99.109 L 183.054 90.71 C 183.054 87.677 180.6 85.224 177.567 85.224 C 174.544 85.224 172.081 87.677 172.081 90.71 L 172.081 99.109 L 163.821 99.109 L 163.821 90.71 C 163.821 87.677 161.359 85.224 158.328 85.224 C 155.304 85.224 152.841 87.677 152.841 90.71 L 152.841 99.109 L 144.606 99.109 L 144.606 90.71 C 144.606 87.677 142.144 85.224 139.112 85.224 C 136.089 85.224 133.626 87.677 133.626 90.71 L 133.626 99.109 L 119.655 99.109 C 116.632 99.109 114.171 101.563 114.171 104.596 L 114.171 120.588 L 100.658 120.588 C 97.625 120.588 95.17 123.042 95.17 126.074 C 95.17 129.105 97.625 131.561 100.658 131.561 L 114.179 131.561 L 114.179 139.803 L 100.658 139.803 C 97.625 139.803 95.17 142.257 95.17 145.288 C 95.17 148.321 97.625 150.775 100.658 150.775 L 114.179 150.775 L 114.179 159.039 L 100.658 159.039 C 97.625 159.039 95.17 161.493 95.17 164.525 C 95.17 167.549 97.625 170.012 100.658 170.012 L 114.179 170.012 L 114.179 178.27 L 100.658 178.27 C 97.625 178.27 95.17 180.733 95.17 183.758 C 95.17 186.789 97.625 189.252 100.658 189.252 L 114.179 189.252 L 114.179 201.177 C 114.179 204.21 116.641 206.663 119.665 206.663 L 133.635 206.663 L 133.635 219.1 C 133.635 222.133 136.096 224.594 139.12 224.594 C 142.153 224.594 144.614 222.133 144.614 219.1 L 144.614 206.663 L 152.85 206.663 L 152.85 219.1 C 152.85 222.133 155.313 224.594 158.336 224.594 C 161.367 224.594 163.83 222.133 163.83 219.1 L 163.83 206.663 L 172.091 206.663 L 172.091 219.1 C 172.091 222.133 174.553 224.594 177.577 224.594 C 180.608 224.594 183.061 222.133 183.061 219.1 L 183.061 206.65 L 183.054 206.65 Z M 210.955 251.652 L 210.955 271.192 L 230.522 271.192 L 230.522 251.652 L 210.955 251.652 Z M 195.292 368.39 C 195.292 365.359 192.839 362.905 189.806 362.905 C 186.775 362.905 184.32 365.359 184.32 368.39 L 184.32 400.956 C 184.32 403.98 186.775 406.44 189.806 406.44 C 192.839 406.44 195.292 403.98 195.292 400.956 L 195.292 368.39 Z M 210.558 368.39 C 210.558 365.359 208.097 362.905 205.073 362.905 C 202.041 362.905 199.578 365.359 199.578 368.39 L 199.578 400.956 C 199.578 403.98 202.041 406.44 205.073 406.44 C 208.097 406.44 210.558 403.98 210.558 400.956 L 210.558 368.39 Z M 225.837 368.39 C 225.837 365.359 223.376 362.905 220.352 362.905 C 217.319 362.905 214.866 365.359 214.866 368.39 L 214.866 400.956 C 214.866 403.98 217.319 406.44 220.352 406.44 C 223.376 406.44 225.837 403.98 225.837 400.956 L 225.837 368.39 Z M 241.092 368.39 C 241.092 365.359 238.639 362.905 235.605 362.905 C 232.574 362.905 230.12 365.359 230.12 368.39 L 230.12 400.956 C 230.12 403.98 232.574 406.44 235.605 406.44 C 238.639 406.44 241.092 403.98 241.092 400.956 L 241.092 368.39 Z M 256.353 368.39 C 256.353 365.359 253.892 362.905 250.867 362.905 C 247.836 362.905 245.373 365.359 245.373 368.39 L 245.373 400.956 C 245.373 403.98 247.836 406.44 250.867 406.44 C 253.892 406.44 256.353 403.98 256.353 400.956 L 256.353 368.39 Z M 246.539 327.098 L 246.539 321.856 L 254.69 321.856 C 257.722 321.856 260.177 319.403 260.177 316.37 C 260.177 313.338 257.722 310.885 254.69 310.885 L 246.539 310.885 L 246.539 305.666 C 246.539 302.633 244.076 300.18 241.053 300.18 L 203.45 300.18 C 200.419 300.18 197.957 302.633 197.957 305.666 L 197.957 310.885 L 189.806 310.885 C 186.775 310.885 184.32 313.338 184.32 316.37 C 184.32 319.403 186.775 321.856 189.806 321.856 L 197.957 321.856 L 197.957 327.098 L 189.806 327.098 C 186.775 327.098 184.32 329.559 184.32 332.583 C 184.32 335.616 186.775 338.077 189.806 338.077 L 197.957 338.077 L 197.957 343.298 C 197.957 346.321 200.419 348.783 203.45 348.783 L 241.053 348.783 C 244.076 348.783 246.539 346.321 246.539 343.298 L 246.539 338.077 L 254.69 338.077 C 257.722 338.077 260.177 335.616 260.177 332.583 C 260.177 329.559 257.722 327.098 254.69 327.098 L 246.539 327.098 Z M 279.59 251.652 L 260.036 251.652 L 260.036 271.192 L 279.584 271.192 L 279.584 251.652 L 279.59 251.652 Z M 279.251 320.923 C 279.251 326.329 283.648 330.716 289.044 330.716 C 294.438 330.716 298.825 326.329 298.825 320.923 C 298.825 315.538 294.438 311.15 289.044 311.15 C 283.648 311.156 279.251 315.544 279.251 320.923 Z M 289.044 375.874 C 294.438 375.874 298.825 371.478 298.825 366.08 C 298.825 360.687 294.438 356.308 289.044 356.308 C 283.648 356.308 279.251 360.687 279.251 366.08 C 279.251 371.478 283.648 375.874 289.044 375.874 Z M 410.738 400.956 C 410.738 397.923 408.284 395.461 405.251 395.461 L 299.928 395.461 C 296.905 395.461 294.442 397.923 294.442 400.956 C 294.442 403.98 296.905 406.44 299.928 406.44 L 405.251 406.44 C 408.288 406.44 410.738 403.983 410.738 400.956 Z M 312.239 329.458 C 312.239 332.49 314.692 334.944 317.724 334.944 L 327.205 334.944 C 330.238 334.944 332.691 332.49 332.691 329.458 C 332.691 326.425 330.238 323.972 327.205 323.972 L 317.724 323.972 C 314.692 323.972 312.239 326.425 312.239 329.458 Z M 317.724 320.886 L 327.205 320.886 C 330.238 320.886 332.691 318.423 332.691 315.392 C 332.691 312.367 330.238 309.904 327.205 309.904 L 317.724 309.904 C 314.692 309.904 312.239 312.367 312.239 315.392 C 312.239 318.423 314.692 320.886 317.724 320.886 Z M 312.239 343.512 C 312.239 346.544 314.692 348.999 317.724 348.999 L 327.205 348.999 C 330.238 348.999 332.691 346.544 332.691 343.512 C 332.691 340.48 330.238 338.026 327.205 338.026 L 317.724 338.026 C 314.692 338.031 312.239 340.48 312.239 343.512 Z M 312.239 357.57 C 312.239 360.603 314.692 363.066 317.724 363.066 L 327.205 363.066 C 330.238 363.066 332.691 360.603 332.691 357.57 C 332.691 354.547 330.238 352.086 327.205 352.086 L 317.724 352.086 C 314.692 352.086 312.239 354.547 312.239 357.57 Z M 312.239 371.634 C 312.239 374.657 314.692 377.121 317.724 377.121 L 327.205 377.121 C 330.238 377.121 332.691 374.657 332.691 371.634 C 332.691 368.601 330.238 366.148 327.205 366.148 L 317.724 366.148 C 314.692 366.154 312.239 368.601 312.239 371.634 Z M 349.334 356.685 L 349.334 374.346 L 366.986 374.346 L 366.986 356.685 L 349.334 356.685 Z M 366.986 329.762 L 366.986 312.11 L 349.334 312.11 L 349.334 329.762 L 366.986 329.762 Z M 411.632 356.685 L 393.971 356.685 L 393.971 374.346 L 411.632 374.346 L 411.632 356.685 Z M 411.632 312.11 L 393.971 312.11 L 393.971 329.762 L 411.632 329.762 L 411.632 312.11 Z M 422.6 276.687 C 422.6 273.653 420.145 271.192 417.114 271.192 L 311.79 271.192 C 308.759 271.192 306.305 273.653 306.305 276.687 C 306.305 279.71 308.759 282.172 311.79 282.172 L 417.114 282.172 C 420.151 282.169 422.6 279.71 422.6 276.687 Z M 422.6 261.42 C 422.6 258.396 420.145 255.935 417.114 255.935 L 311.79 255.935 C 308.759 255.935 306.305 258.396 306.305 261.42 C 306.305 264.452 308.759 266.905 311.79 266.905 L 417.114 266.905 C 420.151 266.905 422.6 264.452 422.6 261.42 Z M 422.6 246.166 C 422.6 243.134 420.145 240.68 417.114 240.68 L 311.79 240.68 C 308.759 240.68 306.305 243.134 306.305 246.166 C 306.305 249.198 308.759 251.652 311.79 251.652 L 417.114 251.652 C 420.151 251.652 422.6 249.198 422.6 246.166 Z M 422.6 198.433 C 422.6 195.4 420.145 192.947 417.114 192.947 L 408.871 192.947 L 408.871 185.995 C 408.871 182.962 406.417 180.509 403.384 180.509 L 275.277 180.509 C 272.246 180.509 269.791 182.962 269.791 185.995 L 269.791 192.947 L 261.548 192.947 C 258.516 192.947 256.062 195.4 256.062 198.433 C 256.062 201.465 258.516 203.919 261.548 203.919 L 269.791 203.919 L 269.791 210.852 C 269.791 213.885 272.246 216.338 275.277 216.338 L 403.389 216.338 C 406.421 216.338 408.876 213.885 408.876 210.852 L 408.876 203.919 L 417.119 203.919 C 420.151 203.919 422.6 201.465 422.6 198.433 Z M 422.6 154.897 C 422.6 151.874 420.145 149.411 417.114 149.411 L 408.871 149.411 L 408.871 142.484 C 408.871 139.453 406.417 136.99 403.384 136.99 L 275.277 136.99 C 272.246 136.99 269.791 139.453 269.791 142.484 L 269.791 149.411 L 261.548 149.411 C 258.516 149.411 256.062 151.874 256.062 154.897 C 256.062 157.928 258.516 160.381 261.548 160.381 L 269.791 160.381 L 269.791 167.341 C 269.791 170.365 272.246 172.827 275.277 172.827 L 403.389 172.827 C 406.421 172.827 408.876 170.365 408.876 167.341 L 408.876 160.381 L 417.119 160.381 C 420.151 160.381 422.6 157.928 422.6 154.897 Z M 422.6 111.386 C 422.6 108.362 420.145 105.9 417.114 105.9 L 408.871 105.9 L 408.871 98.95 C 408.871 95.917 406.417 93.464 403.384 93.464 L 275.277 93.464 C 272.246 93.464 269.791 95.917 269.791 98.95 L 269.791 105.9 L 261.548 105.9 C 258.516 105.9 256.062 108.362 256.062 111.386 C 256.062 114.418 258.516 116.872 261.548 116.872 L 269.791 116.872 L 269.791 123.832 C 269.791 126.856 272.246 129.316 275.277 129.316 L 403.389 129.316 C 406.421 129.316 408.876 126.856 408.876 123.832 L 408.876 116.872 L 417.119 116.872 C 420.151 116.872 422.6 114.418 422.6 111.386 Z M 208.936 337.811 L 235.563 337.811 L 235.563 311.156 L 208.936 311.156 L 208.936 337.811 Z" style="fill: url('#gradient-0'); fill-opacity: 0.77;" transform="matrix(1, 0, 0, 1, 1.4210854715202004e-14, 2.842170943040401e-14)"/>
</svg>