<?xml version="1.0" encoding="utf-8"?>
<svg viewBox="0 0 500 500" xmlns="http://www.w3.org/2000/svg">
  <defs>
    <linearGradient gradientUnits="userSpaceOnUse" x1="248.35" y1="34.083" x2="248.35" y2="462.725" id="gradient-0">
      <stop offset="0" style="stop-color: rgb(30.98% 26.275% 67.843%)"/>
      <stop offset="1" style="stop-color: rgb(14.946% 14.114% 53.189%)"/>
    </linearGradient>
  </defs>
  <path d="M 254.391 443.639 L 271.674 462.725 L 100.829 462.725 L 118.102 443.648 C 122.289 439.014 129.829 436.365 138.763 436.365 L 233.731 436.365 C 242.557 436.37 250.273 439.087 254.391 443.639 Z M 172.697 449.546 C 172.697 446.117 169.927 443.346 166.498 443.346 L 152.692 443.346 C 149.262 443.346 146.492 446.117 146.492 449.546 C 146.492 452.975 149.262 455.745 152.692 455.745 L 166.498 455.745 C 169.927 455.745 172.697 452.975 172.697 449.546 Z M 226.024 449.546 C 226.024 446.117 223.254 443.346 219.825 443.346 L 205.991 443.346 C 202.562 443.346 199.792 446.117 199.792 449.546 C 199.792 452.975 202.562 455.745 205.991 455.745 L 219.825 455.745 C 223.25 455.745 226.024 452.975 226.024 449.546 Z M 302.747 54.77 L 302.747 168.194 L 302.747 180.593 L 69.742 180.593 L 69.742 168.194 L 69.742 54.77 C 69.742 43.365 79.041 34.083 90.457 34.083 L 282.028 34.083 C 293.458 34.083 302.747 43.365 302.747 54.77 Z M 267.72 128.253 C 267.72 125.225 265.171 122.658 262.148 122.658 L 110.369 122.658 C 107.277 122.658 104.769 125.172 104.769 128.253 C 104.769 131.327 107.277 133.826 110.369 133.826 L 262.148 133.826 C 265.221 133.826 267.72 131.327 267.72 128.253 Z M 267.72 74.023 C 267.72 70.95 265.221 68.451 262.148 68.451 L 110.369 68.451 C 107.277 68.451 104.769 70.946 104.769 74.023 C 104.769 77.115 107.277 79.619 110.369 79.619 L 262.148 79.619 C 265.167 79.623 267.72 77.065 267.72 74.023 Z M 69.742 200.762 L 302.747 200.762 L 302.747 213.161 L 302.747 442.019 C 302.747 451.477 296.372 459.476 287.691 461.936 L 263.591 435.323 C 257.072 428.104 246.189 423.963 233.727 423.963 L 138.763 423.963 C 126.327 423.963 115.453 428.109 108.907 435.314 L 84.799 461.936 C 76.117 459.471 69.742 451.477 69.742 442.019 L 69.742 213.161 L 69.742 200.762 Z M 267.72 395.275 C 267.72 398.695 270.5 401.475 273.929 401.475 C 277.349 401.475 280.129 398.695 280.129 395.275 L 280.129 243.156 C 280.129 239.736 277.349 236.957 273.929 236.957 C 270.5 236.957 267.72 239.736 267.72 243.156 L 267.72 395.275 Z M 242.665 395.275 C 242.665 398.695 245.444 401.475 248.873 401.475 C 252.293 401.475 255.073 398.695 255.073 395.275 L 255.073 243.156 C 255.073 239.736 252.293 236.957 248.873 236.957 C 245.444 236.957 242.665 239.736 242.665 243.156 L 242.665 395.275 Z M 217.61 395.275 C 217.61 398.695 220.39 401.475 223.819 401.475 C 227.239 401.475 230.019 398.695 230.019 395.275 L 230.019 243.156 C 230.019 239.736 227.239 236.957 223.819 236.957 C 220.39 236.957 217.61 239.736 217.61 243.156 L 217.61 395.275 Z M 192.582 395.275 C 192.582 398.695 195.361 401.475 198.791 401.475 C 202.211 401.475 204.99 398.695 204.99 395.275 L 204.99 243.156 C 204.99 239.736 202.211 236.957 198.791 236.957 C 195.361 236.957 192.582 239.736 192.582 243.156 L 192.582 395.275 Z M 167.526 395.275 C 167.526 398.695 170.306 401.475 173.735 401.475 C 177.155 401.475 179.934 398.695 179.934 395.275 L 179.934 243.156 C 179.934 239.736 177.155 236.957 173.735 236.957 C 170.306 236.957 167.526 239.736 167.526 243.156 L 167.526 395.275 Z M 142.471 395.275 C 142.471 398.695 145.25 401.475 148.67 401.475 C 152.099 401.475 154.879 398.695 154.879 395.275 L 154.879 243.156 C 154.879 239.736 152.099 236.957 148.67 236.957 C 145.25 236.957 142.471 239.736 142.471 243.156 L 142.471 395.275 Z M 117.416 395.275 C 117.416 398.695 120.196 401.475 123.625 401.475 C 127.045 401.475 129.825 398.695 129.825 395.275 L 129.825 243.156 C 129.825 239.736 127.045 236.957 123.625 236.957 C 120.196 236.957 117.416 239.736 117.416 243.156 L 117.416 395.275 Z M 92.361 395.275 C 92.361 398.695 95.14 401.475 98.569 401.475 C 101.989 401.475 104.769 398.695 104.769 395.275 L 104.769 243.156 C 104.769 239.736 101.989 236.957 98.569 236.957 C 95.14 236.957 92.361 239.736 92.361 243.156 L 92.361 395.275 Z M 418.829 84.767 L 314.032 46.234 C 314.759 48.963 315.146 51.824 315.146 54.77 L 315.146 73.066 L 426.958 114.144 L 426.958 96.398 C 426.958 91.056 423.85 86.612 418.829 84.767 Z M 315.146 86.274 L 315.146 112.258 L 426.958 153.336 L 426.958 127.36 L 315.146 86.274 Z M 315.146 125.465 L 315.146 442.019 C 315.146 444.97 314.759 447.831 314.032 450.556 L 418.829 412.05 C 423.85 410.21 426.958 405.752 426.958 400.423 L 426.958 166.547 L 315.146 125.465 Z" style="fill-opacity: 0.77; fill: url('#gradient-0');" transform="matrix(1, 0, 0, 1, 1.4210854715202004e-14, 2.842170943040401e-14)"/>
</svg>