<?xml version="1.0" encoding="utf-8"?>
<svg viewBox="0 0 500 500" xmlns="http://www.w3.org/2000/svg">
  <defs>
    <linearGradient gradientUnits="userSpaceOnUse" x1="249.791" y1="113.245" x2="249.791" y2="400" id="gradient-0">
      <stop offset="0" style="stop-color: rgb(30.98% 26.275% 67.843%)"/>
      <stop offset="1" style="stop-color: rgb(14.946% 14.114% 53.189%)"/>
    </linearGradient>
  </defs>
  <path d="M 445.065 113.245 L 54.521 113.245 L 31.363 137.065 L 31.363 376.198 L 54.521 400 L 445.061 400 L 468.219 376.198 L 468.219 137.065 L 445.065 113.245 Z M 408.098 176.364 L 418.997 176.364 L 418.997 196.907 L 408.098 196.907 L 408.098 176.364 Z M 382.898 176.364 L 395.461 176.364 L 395.461 196.907 L 382.898 196.907 L 382.898 176.364 Z M 357.671 176.364 L 370.257 176.364 L 370.257 196.907 L 357.671 196.907 L 357.671 176.364 Z M 334.162 176.364 L 345.033 176.364 L 345.033 196.907 L 334.162 196.907 L 334.162 176.364 Z M 57.414 130.83 C 60.628 127.597 64.915 125.813 69.479 125.813 C 74.046 125.813 78.332 127.602 81.565 130.839 C 84.779 134.044 86.563 138.33 86.563 142.897 C 86.563 147.454 84.775 151.739 81.537 154.972 C 78.313 158.186 74.038 159.952 69.479 159.952 C 64.923 159.952 60.633 158.183 57.414 154.962 C 54.191 151.739 52.424 147.454 52.424 142.897 C 52.42 138.34 54.191 134.053 57.414 130.83 Z M 81.537 382.453 C 78.323 385.667 74.038 387.433 69.479 387.433 C 64.923 387.433 60.633 385.662 57.414 382.434 C 54.191 379.22 52.424 374.924 52.424 370.358 C 52.424 365.793 54.195 361.506 57.414 358.283 C 64.068 351.633 74.888 351.633 81.537 358.273 C 84.779 361.497 86.563 365.793 86.563 370.358 C 86.563 374.934 84.779 379.23 81.537 382.453 Z M 263.475 197.449 L 263.475 320.906 L 257.307 326.906 L 266.241 335.842 L 276.938 346.537 C 279.413 349.003 279.413 352.999 276.938 355.473 C 275.71 356.709 274.087 357.322 272.469 357.322 C 270.854 357.322 269.236 356.709 268 355.473 L 257.179 344.652 L 248.243 335.718 L 241.764 342.026 L 119.536 342.026 L 113.065 335.727 L 104.121 344.671 L 93.319 355.473 C 92.083 356.709 90.468 357.322 88.85 357.322 C 87.235 357.322 85.616 356.709 84.38 355.473 C 81.914 352.999 81.914 349.003 84.38 346.537 L 95.066 335.851 L 104.002 326.916 L 97.825 320.906 L 97.825 197.449 L 103.992 191.467 L 95.048 182.522 L 84.38 171.853 C 81.914 169.379 81.914 165.384 84.38 162.91 C 86.845 160.445 90.85 160.445 93.314 162.91 L 104.116 173.712 L 113.06 182.655 L 119.531 176.364 L 241.759 176.364 L 248.24 182.665 L 257.183 173.72 L 267.995 162.91 C 270.469 160.445 274.464 160.445 276.929 162.91 C 279.403 165.384 279.403 169.379 276.929 171.853 L 266.251 182.531 L 257.307 191.475 L 263.475 197.449 Z M 309.028 382.434 C 309.028 382.444 309.028 382.444 309.028 382.444 C 305.804 385.667 301.518 387.433 296.961 387.433 C 292.404 387.433 288.113 385.662 284.894 382.434 C 281.67 379.22 279.895 374.924 279.895 370.358 C 279.895 365.793 281.675 361.506 284.894 358.283 C 288.118 355.059 292.404 353.283 296.961 353.283 C 301.518 353.283 305.807 355.064 309.028 358.283 C 312.251 361.506 314.025 365.793 314.025 370.358 C 314.025 374.924 312.247 379.21 309.028 382.434 Z M 309.028 154.962 C 305.804 158.186 301.518 159.952 296.961 159.952 C 292.404 159.952 288.113 158.183 284.894 154.962 C 281.67 151.739 279.895 147.454 279.895 142.897 C 279.895 138.34 281.675 134.053 284.894 130.83 C 288.108 127.597 292.394 125.813 296.961 125.813 C 301.527 125.813 305.812 127.602 309.036 130.839 C 312.251 134.063 314.025 138.34 314.025 142.897 C 314.025 147.454 312.247 151.743 309.028 154.962 Z M 324.234 256.513 L 324.234 230.111 C 324.234 226.617 327.058 223.793 330.552 223.793 L 356.953 223.793 C 360.447 223.793 363.272 226.617 363.272 230.111 L 363.272 256.513 C 363.272 260.007 360.447 262.84 356.953 262.84 L 330.552 262.84 C 327.058 262.84 324.234 260.007 324.234 256.513 Z M 416.26 331.395 L 397.885 342.026 L 355.246 342.026 L 336.871 331.395 L 336.871 288.223 L 416.26 288.223 L 416.26 331.395 Z M 428.897 256.513 C 428.897 260.007 426.074 262.84 422.578 262.84 L 396.179 262.84 C 392.683 262.84 389.861 260.007 389.861 256.513 L 389.861 230.111 C 389.861 226.617 392.683 223.793 396.179 223.793 L 422.578 223.793 C 426.074 223.793 428.897 226.617 428.897 230.111 L 428.897 256.513 Z M 230.609 200.309 C 217.135 188.845 199.687 181.933 180.65 181.933 C 161.63 181.933 144.183 188.849 130.71 200.301 L 113.065 182.655 L 103.992 191.467 L 121.766 209.239 C 110.32 222.713 103.408 240.151 103.408 259.179 C 103.408 278.212 110.32 295.673 121.774 309.148 L 104.002 326.92 L 113.065 335.732 L 130.71 318.087 C 144.183 329.541 161.63 336.453 180.65 336.453 C 199.683 336.453 217.135 329.538 230.609 318.087 L 248.243 335.722 L 257.307 326.911 L 239.543 309.138 C 250.999 295.665 257.91 278.209 257.91 259.179 C 257.91 240.159 250.999 222.722 239.543 209.249 L 257.317 191.475 L 248.243 182.665 L 230.609 200.309 Z M 180.65 194.579 C 196.193 194.579 210.472 200.092 221.637 209.271 L 206.122 224.788 C 198.998 219.508 190.182 216.377 180.65 216.377 C 171.127 216.377 162.311 219.508 155.187 224.788 L 139.682 209.271 C 150.837 200.092 165.116 194.579 180.65 194.579 Z M 171.724 259.194 L 155.335 275.574 C 152.277 270.85 150.487 265.213 150.487 259.175 C 150.487 253.136 152.268 247.513 155.335 242.804 L 171.724 259.194 Z M 164.269 233.86 C 168.992 230.802 174.621 229.014 180.65 229.014 C 186.688 229.014 192.33 230.802 197.048 233.87 L 180.659 250.248 L 164.269 233.86 Z M 180.659 268.132 L 197.04 284.513 C 192.316 287.588 186.688 289.369 180.65 289.369 C 174.621 289.369 168.997 287.588 164.279 284.513 L 180.659 268.132 Z M 189.593 259.194 L 205.983 242.804 C 209.059 247.518 210.839 253.136 210.839 259.175 C 210.839 265.213 209.051 270.855 205.983 275.574 L 189.593 259.194 Z M 116.045 259.175 C 116.045 243.641 121.559 229.362 130.737 218.207 L 146.253 233.722 C 140.974 240.845 137.843 249.642 137.843 259.175 C 137.843 268.708 140.974 277.523 146.261 284.656 L 130.746 300.171 C 121.567 289.006 116.045 274.728 116.045 259.175 Z M 180.65 323.811 C 165.106 323.811 150.828 318.298 139.673 309.119 L 155.197 293.595 C 162.32 298.874 171.127 302.005 180.65 302.005 C 190.182 302.005 198.989 298.874 206.112 293.585 C 206.112 293.585 206.112 293.585 206.112 293.585 L 221.637 309.11 C 210.472 318.298 196.193 323.811 180.65 323.811 Z M 245.277 259.175 C 245.277 274.728 239.754 289.006 230.575 300.171 L 215.061 284.656 C 220.349 277.523 223.481 268.708 223.481 259.175 C 223.481 249.642 220.349 240.845 215.07 233.722 L 230.585 218.207 C 239.759 229.362 245.277 243.645 245.277 259.175 Z M 347.412 309.528 L 347.412 303.541 C 347.412 300.052 350.239 297.223 353.73 297.223 C 357.219 297.223 360.048 300.052 360.048 303.541 L 360.048 309.528 C 360.048 313.019 357.219 315.848 353.73 315.848 C 350.244 315.851 347.412 313.024 347.412 309.528 Z M 393.084 309.528 L 393.084 303.541 C 393.084 300.052 395.912 297.223 399.402 297.223 C 402.892 297.223 405.721 300.052 405.721 303.541 L 405.721 309.528 C 405.721 313.019 402.892 315.848 399.402 315.848 C 395.912 315.851 393.084 313.024 393.084 309.528 Z M 370.261 325.651 L 370.261 319.663 C 370.261 316.174 373.089 313.345 376.58 313.345 C 380.071 313.345 382.898 316.174 382.898 319.663 L 382.898 325.651 C 382.898 329.142 380.071 331.969 376.58 331.969 C 373.089 331.969 370.261 329.142 370.261 325.651 Z" style="fill: url('#gradient-0'); fill-opacity: 0.77;" transform="matrix(1, 0, 0, 1, 1.4210854715202004e-14, 2.842170943040401e-14)"/>
</svg>