<?xml version="1.0" encoding="utf-8"?>
<svg viewBox="0 0 500 500" xmlns="http://www.w3.org/2000/svg">
  <defs>
    <linearGradient gradientUnits="userSpaceOnUse" x1="257.429" y1="146.826" x2="257.429" y2="347.696" id="gradient-0" gradientTransform="matrix(1, 0, 0, 1, -6.876872, -1.375374)">
      <stop offset="0" style="stop-color: rgb(30.98% 26.275% 67.843%)"/>
      <stop offset="1" style="stop-color: rgb(14.946% 14.114% 53.189%)"/>
    </linearGradient>
  </defs>
  <path d="M 472.959 216.424 C 476.415 216.424 479.213 213.628 479.213 210.17 L 479.213 151.704 C 479.213 148.247 476.415 145.451 472.959 145.451 L 28.134 145.451 C 24.677 145.451 21.881 148.247 21.881 151.704 L 21.881 210.166 C 21.881 213.622 24.677 216.419 28.134 216.419 C 35.672 216.419 41.812 222.568 41.812 230.12 C 41.812 237.659 35.672 243.786 28.134 243.786 C 24.677 243.786 21.881 246.594 21.881 250.049 L 21.881 308.516 C 21.881 311.973 24.677 314.77 28.134 314.77 L 49.937 314.77 L 49.937 340.068 C 49.937 343.514 52.735 346.321 56.191 346.321 L 86.65 346.321 L 86.65 333.814 L 86.65 326.776 C 86.65 323.319 89.446 320.513 92.903 320.513 C 96.36 320.513 99.156 323.319 99.156 326.776 L 99.156 333.814 L 99.156 346.321 L 119.995 346.321 L 119.995 333.814 L 119.995 326.776 C 119.995 323.319 122.792 320.513 126.249 320.513 C 129.705 320.513 132.503 323.319 132.503 326.776 L 132.503 333.814 L 132.503 346.321 L 153.313 346.321 L 153.313 333.814 L 153.313 326.776 C 153.313 323.319 156.12 320.513 159.577 320.513 C 163.024 320.513 165.83 323.319 165.83 326.776 L 165.83 333.814 L 165.83 346.321 L 186.641 346.321 L 186.641 333.814 L 186.641 326.776 C 186.641 323.319 189.438 320.513 192.894 320.513 C 196.352 320.513 199.147 323.319 199.147 326.776 L 199.147 333.814 L 199.147 346.321 L 229.606 346.321 C 233.062 346.321 235.859 343.514 235.859 340.068 L 235.859 314.77 L 265.23 314.77 L 265.23 340.068 C 265.23 343.514 268.036 346.321 271.494 346.321 L 301.951 346.321 L 301.951 333.814 L 301.951 326.776 C 301.951 323.319 304.748 320.513 308.205 320.513 C 311.661 320.513 314.458 323.319 314.458 326.776 L 314.458 333.814 L 314.458 346.321 L 335.269 346.321 L 335.269 333.814 L 335.269 326.776 C 335.269 323.319 338.077 320.513 341.523 320.513 C 344.979 320.513 347.776 323.319 347.776 326.776 L 347.776 333.814 L 347.776 346.321 L 368.595 346.321 L 368.595 333.814 L 368.595 326.776 C 368.595 323.319 371.393 320.513 374.851 320.513 C 378.297 320.513 381.103 323.319 381.103 326.776 L 381.103 333.814 L 381.103 346.321 L 401.943 346.321 L 401.943 333.814 L 401.943 326.776 C 401.943 323.319 404.741 320.513 408.196 320.513 C 411.653 320.513 414.449 323.319 414.449 326.776 L 414.449 333.814 L 414.449 346.321 L 444.886 346.321 C 448.34 346.321 451.138 343.514 451.138 340.068 L 451.138 314.77 L 472.969 314.77 C 476.426 314.77 479.222 311.973 479.222 308.516 L 479.222 250.055 C 479.222 246.598 476.426 243.793 472.969 243.793 C 465.431 243.793 459.293 237.662 459.293 230.124 C 459.283 222.568 465.42 216.424 472.959 216.424 Z M 140.504 214.143 C 143.959 214.143 146.757 216.949 146.757 220.395 C 146.757 223.853 143.959 226.649 140.504 226.649 L 131.337 226.649 L 131.337 233.561 L 140.504 233.561 C 143.959 233.561 146.757 236.369 146.757 239.816 C 146.757 243.271 143.959 246.079 140.504 246.079 L 131.337 246.079 L 131.337 253.011 L 140.504 253.011 C 143.959 253.011 146.757 255.818 146.757 259.265 C 146.757 262.72 143.959 265.528 140.504 265.528 L 131.337 265.528 L 131.337 275.343 C 131.337 278.801 128.532 281.606 125.084 281.606 L 85.557 281.606 C 82.1 281.606 79.301 278.801 79.301 275.343 L 79.301 265.528 L 70.156 265.528 C 66.708 265.528 63.902 262.72 63.902 259.265 C 63.902 255.818 66.708 253.011 70.156 253.011 L 79.301 253.011 L 79.301 246.079 L 70.156 246.079 C 66.708 246.079 63.902 243.271 63.902 239.816 C 63.902 236.369 66.708 233.561 70.156 233.561 L 79.301 233.561 L 79.301 226.649 L 70.156 226.649 C 66.708 226.649 63.902 223.853 63.902 220.395 C 63.902 216.949 66.708 214.143 70.156 214.143 L 79.301 214.143 L 79.301 207.229 L 70.156 207.229 C 66.708 207.229 63.902 204.433 63.902 200.976 C 63.902 197.519 66.708 194.723 70.156 194.723 L 79.301 194.723 L 79.301 184.898 C 79.301 181.441 82.1 178.645 85.557 178.645 L 125.084 178.645 C 128.532 178.645 131.337 181.441 131.337 184.898 L 131.337 194.723 L 140.504 194.723 C 143.959 194.723 146.757 197.519 146.757 200.976 C 146.757 204.433 143.959 207.229 140.504 207.229 L 131.337 207.229 L 131.337 214.143 L 140.504 214.143 Z M 237.304 214.143 C 240.76 214.143 243.558 216.949 243.558 220.395 C 243.558 223.853 240.76 226.649 237.304 226.649 L 228.166 226.649 L 228.166 233.561 L 237.304 233.561 C 240.76 233.561 243.558 236.369 243.558 239.816 C 243.558 243.271 240.76 246.079 237.304 246.079 L 228.166 246.079 L 228.166 253.011 L 237.304 253.011 C 240.76 253.011 243.558 255.818 243.558 259.265 C 243.558 262.72 240.76 265.528 237.304 265.528 L 228.166 265.528 L 228.166 275.343 C 228.166 278.801 225.36 281.606 221.904 281.606 L 182.386 281.606 C 178.929 281.606 176.122 278.801 176.122 275.343 L 176.122 265.528 L 166.956 265.528 C 163.509 265.528 160.703 262.72 160.703 259.265 C 160.703 255.818 163.509 253.011 166.956 253.011 L 176.122 253.011 L 176.122 246.079 L 166.956 246.079 C 163.509 246.079 160.703 243.271 160.703 239.816 C 160.703 236.369 163.509 233.561 166.956 233.561 L 176.122 233.561 L 176.122 226.649 L 166.956 226.649 C 163.509 226.649 160.703 223.853 160.703 220.395 C 160.703 216.949 163.509 214.143 166.956 214.143 L 176.122 214.143 L 176.122 207.229 L 166.956 207.229 C 163.509 207.229 160.703 204.433 160.703 200.976 C 160.703 197.519 163.509 194.723 166.956 194.723 L 176.122 194.723 L 176.122 184.898 C 176.122 181.441 178.929 178.645 182.386 178.645 L 221.904 178.645 C 225.36 178.645 228.166 181.441 228.166 184.898 L 228.166 194.723 L 237.304 194.723 C 240.76 194.723 243.558 197.519 243.558 200.976 C 243.558 204.433 240.76 207.229 237.304 207.229 L 228.166 207.229 L 228.166 214.143 L 237.304 214.143 Z M 334.133 214.143 C 337.58 214.143 340.386 216.949 340.386 220.395 C 340.386 223.853 337.58 226.649 334.133 226.649 L 324.958 226.649 L 324.958 233.561 L 334.133 233.561 C 337.58 233.561 340.386 236.369 340.386 239.816 C 340.386 243.271 337.58 246.079 334.133 246.079 L 324.958 246.079 L 324.958 253.011 L 334.133 253.011 C 337.58 253.011 340.386 255.818 340.386 259.265 C 340.386 262.72 337.58 265.528 334.133 265.528 L 324.958 265.528 L 324.958 275.343 C 324.958 278.801 322.161 281.606 318.704 281.606 L 279.175 281.606 C 275.73 281.606 272.922 278.801 272.922 275.343 L 272.922 265.528 L 263.787 265.528 C 260.329 265.528 257.531 262.72 257.531 259.265 C 257.531 255.818 260.329 253.011 263.787 253.011 L 272.922 253.011 L 272.922 246.079 L 263.787 246.079 C 260.329 246.079 257.531 243.271 257.531 239.816 C 257.531 236.369 260.329 233.561 263.787 233.561 L 272.922 233.561 L 272.922 226.649 L 263.787 226.649 C 260.329 226.649 257.531 223.853 257.531 220.395 C 257.531 216.949 260.329 214.143 263.787 214.143 L 272.922 214.143 L 272.922 207.229 L 263.787 207.229 C 260.329 207.229 257.531 204.433 257.531 200.976 C 257.531 197.519 260.329 194.723 263.787 194.723 L 272.922 194.723 L 272.922 184.898 C 272.922 181.441 275.73 178.645 279.175 178.645 L 318.704 178.645 C 322.161 178.645 324.958 181.441 324.958 184.898 L 324.958 194.723 L 334.133 194.723 C 337.58 194.723 340.386 197.519 340.386 200.976 C 340.386 204.433 337.58 207.229 334.133 207.229 L 324.958 207.229 L 324.958 214.143 L 334.133 214.143 Z M 430.923 214.143 C 434.379 214.143 437.186 216.949 437.186 220.395 C 437.186 223.853 434.379 226.649 430.923 226.649 L 421.758 226.649 L 421.758 233.561 L 430.923 233.561 C 434.379 233.561 437.186 236.369 437.186 239.816 C 437.186 243.271 434.379 246.079 430.923 246.079 L 421.758 246.079 L 421.758 253.011 L 430.923 253.011 C 434.379 253.011 437.186 255.818 437.186 259.265 C 437.186 262.72 434.379 265.528 430.923 265.528 L 421.758 265.528 L 421.758 275.343 C 421.758 278.801 418.961 281.606 415.503 281.606 L 375.976 281.606 C 372.529 281.606 369.723 278.801 369.723 275.343 L 369.723 265.528 L 360.586 265.528 C 357.13 265.528 354.332 262.72 354.332 259.265 C 354.332 255.818 357.13 253.011 360.586 253.011 L 369.723 253.011 L 369.723 246.079 L 360.586 246.079 C 357.13 246.079 354.332 243.271 354.332 239.816 C 354.332 236.369 357.13 233.561 360.586 233.561 L 369.723 233.561 L 369.723 226.649 L 360.586 226.649 C 357.13 226.649 354.332 223.853 354.332 220.395 C 354.332 216.949 357.13 214.143 360.586 214.143 L 369.723 214.143 L 369.723 207.229 L 360.586 207.229 C 357.13 207.229 354.332 204.433 354.332 200.976 C 354.332 197.519 357.13 194.723 360.586 194.723 L 369.723 194.723 L 369.723 184.898 C 369.723 181.441 372.529 178.645 375.976 178.645 L 415.503 178.645 C 418.961 178.645 421.758 181.441 421.758 184.898 L 421.758 194.723 L 430.923 194.723 C 434.379 194.723 437.186 197.519 437.186 200.976 C 437.186 204.433 434.379 207.229 430.923 207.229 L 421.758 207.229 L 421.758 214.143 L 430.923 214.143 Z M 91.814 191.15 L 118.836 191.15 L 118.836 269.091 L 91.814 269.091 L 91.814 191.15 Z M 188.639 191.15 L 215.65 191.15 L 215.65 269.091 L 188.639 269.091 L 188.639 191.15 Z M 285.444 191.15 L 312.457 191.15 L 312.457 269.091 L 285.444 269.091 L 285.444 191.15 Z M 382.235 191.15 L 409.256 191.15 L 409.256 269.091 L 382.235 269.091 L 382.235 191.15 Z" style="fill: url('#gradient-0'); fill-opacity: 0.77;" transform="matrix(1, 0, 0, 1, 1.4210854715202004e-14, 2.842170943040401e-14)"/>
</svg>