<?xml version="1.0" encoding="utf-8"?>
<svg viewBox="0 0 500 500" xmlns="http://www.w3.org/2000/svg">
  <defs>
    <linearGradient gradientUnits="userSpaceOnUse" x1="251.309" y1="77.268" x2="251.309" y2="425.35" id="gradient-0">
      <stop offset="0" style="stop-color: rgb(30.98% 26.275% 67.843%)"/>
      <stop offset="1" style="stop-color: rgb(14.946% 14.114% 53.189%)"/>
    </linearGradient>
  </defs>
  <path d="M 437.047 106.016 L 456.355 106.016 L 468.219 106.016 L 468.219 95.519 C 468.219 92.239 465.566 89.59 462.289 89.59 L 418.805 89.59 L 404.232 78.481 C 403.198 77.693 401.936 77.268 400.64 77.268 L 40.329 77.268 C 37.058 77.268 34.399 79.921 34.399 83.198 L 34.399 136.803 C 34.399 140.084 37.058 142.733 40.329 142.733 L 49.1 142.733 C 56.16 142.733 62.112 150.881 62.112 160.536 C 62.112 170.172 56.155 178.302 49.1 178.302 L 40.329 178.302 C 37.058 178.302 34.399 180.96 34.399 184.232 L 34.399 237.836 C 34.399 241.117 37.058 243.766 40.329 243.766 L 400.64 243.766 C 401.936 243.766 403.198 243.34 404.232 242.553 L 418.795 231.473 L 462.285 231.473 C 465.566 231.473 468.215 228.818 468.215 225.543 L 468.215 196.864 C 468.215 193.593 465.56 190.934 462.285 190.934 L 422.735 190.934 L 422.735 183.851 L 462.285 183.851 C 465.566 183.851 468.215 181.198 468.215 177.922 L 468.215 167.426 L 456.35 167.426 L 437.043 167.426 C 433.762 167.426 431.113 164.772 431.113 161.497 C 431.113 158.216 433.766 155.567 437.043 155.567 L 456.35 155.567 L 468.215 155.567 L 468.215 150.908 L 456.35 150.908 L 437.043 150.908 C 433.762 150.908 431.113 148.251 431.113 144.98 C 431.113 141.699 433.766 139.05 437.043 139.05 L 456.35 139.05 L 468.215 139.05 L 468.215 134.406 L 456.35 134.406 L 437.043 134.406 C 433.762 134.406 431.113 131.751 431.113 128.476 C 431.113 125.204 433.766 122.546 437.043 122.546 L 456.35 122.546 L 468.215 122.546 L 468.215 117.889 L 456.35 117.889 L 437.043 117.889 C 433.762 117.889 431.113 115.234 431.113 111.958 C 431.117 108.669 433.77 106.016 437.047 106.016 Z M 65.864 224.998 C 60.922 224.998 56.9 220.99 56.9 216.057 C 56.9 211.117 60.927 207.103 65.864 207.103 C 70.787 207.103 74.795 211.121 74.795 216.057 C 74.795 220.99 70.787 224.998 65.864 224.998 Z M 65.864 113.962 C 60.922 113.962 56.9 109.946 56.9 105.009 C 56.9 100.067 60.927 96.055 65.864 96.055 C 70.787 96.055 74.795 100.071 74.795 105.009 C 74.795 109.95 70.787 113.962 65.864 113.962 Z M 363.269 205.429 L 117.145 205.429 L 117.145 115.623 L 363.269 115.623 L 363.269 205.429 Z M 462.289 258.837 L 101.986 258.837 C 100.692 258.837 99.42 259.264 98.386 260.05 L 83.823 271.159 L 40.329 271.159 C 37.058 271.159 34.399 273.813 34.399 277.089 L 34.399 287.585 L 46.268 287.585 L 65.594 287.585 C 68.875 287.585 71.532 290.238 71.532 293.515 C 71.532 296.795 68.875 299.444 65.594 299.444 L 46.268 299.444 L 34.399 299.444 L 34.399 304.102 L 46.268 304.102 L 65.594 304.102 C 68.875 304.102 71.532 306.76 71.532 310.032 C 71.532 313.312 68.875 315.961 65.594 315.961 L 46.268 315.961 L 34.399 315.961 L 34.399 320.619 L 46.268 320.619 L 65.594 320.619 C 68.875 320.619 71.532 323.277 71.532 326.549 C 71.532 329.829 68.875 332.488 65.594 332.488 L 46.268 332.488 L 34.399 332.488 L 34.399 337.145 L 46.268 337.145 L 65.594 337.145 C 68.875 337.145 71.532 339.8 71.532 343.075 C 71.532 346.346 68.875 349.005 65.594 349.005 L 46.268 349.005 L 34.399 349.005 L 34.399 359.5 C 34.399 362.772 37.058 365.431 40.329 365.431 L 79.888 365.431 L 79.888 372.49 L 40.329 372.49 C 37.058 372.49 34.399 375.148 34.399 378.42 L 34.399 407.098 C 34.399 410.379 37.058 413.028 40.329 413.028 L 83.817 413.028 L 98.381 424.137 C 99.415 424.924 100.688 425.35 101.982 425.35 L 462.285 425.35 C 465.566 425.35 468.215 422.695 468.215 419.42 L 468.215 365.832 C 468.215 362.553 465.56 359.904 462.285 359.904 L 453.523 359.904 C 446.463 359.904 440.501 351.754 440.501 342.101 C 440.501 332.465 446.467 324.334 453.523 324.334 L 462.285 324.334 C 465.566 324.334 468.215 321.676 468.215 318.405 L 468.215 264.772 C 468.219 261.492 465.566 258.837 462.289 258.837 Z M 212.171 378.205 L 121.963 378.205 L 121.963 306.006 L 212.171 306.006 L 212.171 378.205 Z M 306.442 378.205 L 248.174 378.205 L 248.174 306.006 L 306.442 306.006 L 306.442 378.205 Z M 400.709 378.205 L 342.441 378.205 L 342.441 306.006 L 400.709 306.006 L 400.709 378.205 Z" style="fill: url('#gradient-0'); fill-opacity: 0.77;" transform="matrix(1, 0, 0, 1, 1.4210854715202004e-14, 2.842170943040401e-14)"/>
</svg>