<?xml version="1.0" encoding="utf-8"?>
<svg viewBox="0 0 500 500" xmlns="http://www.w3.org/2000/svg">
  <defs>
    <linearGradient gradientUnits="userSpaceOnUse" x1="165.704" y1="172.182" x2="165.704" y2="267.182" id="gradient-0">
      <stop offset="0" style="stop-color: rgb(39.216% 33.333% 85.49%)"/>
      <stop offset="1" style="stop-color: rgb(17.644% 17.375% 66.199%)"/>
    </linearGradient>
  </defs>
  <path d="M 205.034 211.832 C 206.894 211.832 208.484 210.612 209.034 208.922 L 211.904 208.922 C 212.624 208.922 213.204 208.342 213.204 207.622 C 213.204 206.902 212.624 206.322 211.904 206.322 L 209.034 206.322 C 208.484 204.632 206.894 203.412 205.034 203.412 L 203.424 203.412 L 203.424 199.952 L 205.034 199.952 C 206.894 199.952 208.484 198.732 209.034 197.042 L 211.904 197.042 C 212.624 197.042 213.204 196.462 213.204 195.742 C 213.204 195.032 212.624 194.442 211.904 194.442 L 209.034 194.442 C 208.484 192.762 206.904 191.532 205.034 191.532 L 197.284 191.532 L 196.634 190.832 L 196.634 180.352 C 196.634 178.492 195.414 176.902 193.724 176.352 L 193.724 173.482 C 193.724 172.762 193.144 172.182 192.424 172.182 C 191.704 172.182 191.124 172.762 191.124 173.482 L 191.124 176.352 C 189.434 176.902 188.214 178.492 188.214 180.352 L 188.214 183.782 L 183.274 183.782 L 183.274 180.352 C 183.274 178.492 182.054 176.902 180.364 176.352 L 180.364 173.482 C 180.364 172.762 179.784 172.182 179.064 172.182 C 178.344 172.182 177.764 172.762 177.764 173.482 L 177.764 176.352 C 176.074 176.902 174.854 178.492 174.854 180.352 L 174.854 183.782 L 169.914 183.782 L 169.914 180.352 C 169.914 178.492 168.694 176.902 167.004 176.352 L 167.004 173.482 C 167.004 172.762 166.424 172.182 165.704 172.182 C 164.984 172.182 164.404 172.762 164.404 173.482 L 164.404 176.352 C 162.724 176.902 161.494 178.492 161.494 180.352 L 161.494 183.782 L 156.554 183.782 L 156.554 180.352 C 156.554 178.492 155.334 176.902 153.644 176.352 L 153.644 173.482 C 153.644 172.762 153.064 172.182 152.344 172.182 C 151.624 172.182 151.044 172.762 151.044 173.482 L 151.044 176.352 C 149.364 176.902 148.134 178.492 148.134 180.352 L 148.134 183.782 L 143.194 183.782 L 143.194 180.352 C 143.194 178.492 141.974 176.902 140.284 176.352 L 140.284 173.482 C 140.284 172.762 139.704 172.182 138.984 172.182 C 138.264 172.182 137.684 172.762 137.684 173.482 L 137.684 176.352 C 136.004 176.902 134.774 178.492 134.774 180.352 L 134.774 190.832 L 134.134 191.532 L 126.374 191.532 C 124.514 191.532 122.924 192.762 122.374 194.442 L 119.504 194.442 C 118.784 194.442 118.204 195.032 118.204 195.742 C 118.204 196.462 118.784 197.042 119.504 197.042 L 122.374 197.042 C 122.924 198.732 124.514 199.952 126.374 199.952 L 127.984 199.952 L 127.984 203.412 L 126.374 203.412 C 124.514 203.412 122.924 204.632 122.374 206.322 L 119.504 206.322 C 118.784 206.322 118.204 206.902 118.204 207.622 C 118.204 208.342 118.784 208.922 119.504 208.922 L 122.374 208.922 C 122.924 210.612 124.514 211.832 126.374 211.832 L 127.984 211.832 L 127.984 215.292 L 126.374 215.292 C 124.514 215.292 122.924 216.512 122.374 218.202 L 119.504 218.202 C 118.784 218.202 118.204 218.782 118.204 219.502 C 118.204 220.212 118.784 220.802 119.504 220.802 L 122.374 220.802 C 122.924 222.482 124.514 223.712 126.374 223.712 L 127.984 223.712 L 127.984 227.162 L 126.374 227.162 C 124.514 227.162 122.924 228.392 122.374 230.082 L 119.504 230.082 C 118.784 230.082 118.204 230.662 118.204 231.382 C 118.204 232.102 118.784 232.682 119.504 232.682 L 122.374 232.682 C 122.924 234.362 124.514 235.592 126.374 235.592 L 127.984 235.592 L 127.984 239.052 L 126.374 239.052 C 124.514 239.052 122.924 240.272 122.374 241.952 L 119.504 241.952 C 118.784 241.952 118.204 242.542 118.204 243.262 C 118.204 243.972 118.784 244.552 119.504 244.552 L 122.374 244.552 C 122.924 246.242 124.514 247.462 126.374 247.462 L 133.784 247.462 L 134.774 248.532 L 134.774 259.012 C 134.774 260.872 136.004 262.462 137.684 263.012 L 137.684 265.882 C 137.684 266.602 138.264 267.182 138.984 267.182 C 139.704 267.182 140.284 266.602 140.284 265.882 L 140.284 263.012 C 141.974 262.462 143.194 260.872 143.194 259.012 L 143.194 255.582 L 148.134 255.582 L 148.134 259.012 C 148.134 260.872 149.364 262.462 151.044 263.012 L 151.044 265.882 C 151.044 266.602 151.624 267.182 152.344 267.182 C 153.064 267.182 153.644 266.602 153.644 265.882 L 153.644 263.012 C 155.334 262.462 156.554 260.872 156.554 259.012 L 156.554 255.582 L 161.494 255.582 L 161.494 259.012 C 161.494 260.872 162.724 262.462 164.404 263.012 L 164.404 265.882 C 164.404 266.602 164.984 267.182 165.704 267.182 C 166.424 267.182 167.004 266.602 167.004 265.882 L 167.004 263.012 C 168.694 262.462 169.914 260.872 169.914 259.012 L 169.914 255.582 L 174.854 255.582 L 174.854 259.012 C 174.854 260.872 176.074 262.462 177.764 263.012 L 177.764 265.882 C 177.764 266.602 178.344 267.182 179.064 267.182 C 179.784 267.182 180.364 266.602 180.364 265.882 L 180.364 263.012 C 182.054 262.462 183.274 260.872 183.274 259.012 L 183.274 255.582 L 188.214 255.582 L 188.214 259.012 C 188.214 260.872 189.434 262.462 191.124 263.012 L 191.124 265.882 C 191.124 266.602 191.704 267.182 192.424 267.182 C 193.144 267.182 193.724 266.602 193.724 265.882 L 193.724 263.012 C 195.414 262.462 196.634 260.872 196.634 259.012 L 196.634 248.532 L 197.624 247.462 L 205.034 247.462 C 206.894 247.462 208.484 246.242 209.034 244.552 L 211.904 244.552 C 212.624 244.552 213.204 243.972 213.204 243.262 C 213.204 242.542 212.624 241.952 211.904 241.952 L 209.034 241.952 C 208.484 240.272 206.894 239.052 205.034 239.052 L 203.424 239.052 L 203.424 235.592 L 205.034 235.592 C 206.894 235.592 208.484 234.362 209.034 232.682 L 211.904 232.682 C 212.624 232.682 213.204 232.102 213.204 231.382 C 213.204 230.662 212.624 230.082 211.904 230.082 L 209.034 230.082 C 208.484 228.392 206.904 227.162 205.034 227.162 L 203.424 227.162 L 203.424 223.712 L 205.034 223.712 C 206.904 223.712 208.484 222.482 209.034 220.802 L 211.904 220.802 C 212.624 220.802 213.204 220.212 213.204 219.502 C 213.204 218.782 212.624 218.202 211.904 218.202 L 209.034 218.202 C 208.484 216.512 206.894 215.292 205.034 215.292 L 203.424 215.292 L 203.424 211.832 L 205.034 211.832 Z M 200.824 240.202 L 188.944 252.982 L 142.464 252.982 L 130.584 240.202 L 130.584 199.162 L 142.464 186.382 L 188.944 186.382 L 200.824 199.162 L 200.824 240.202 Z M 205.034 217.892 C 205.924 217.892 206.644 218.612 206.644 219.502 C 206.644 220.392 205.924 221.112 205.034 221.112 L 203.424 221.112 L 203.424 217.892 L 205.034 217.892 Z M 187.934 189.992 L 197.274 200.052 C 197.504 200.292 197.624 200.602 197.624 200.932 L 197.624 238.432 C 197.624 238.762 197.504 239.072 197.274 239.322 L 187.934 249.372 C 187.694 249.632 187.344 249.782 186.984 249.782 L 144.424 249.782 C 144.064 249.782 143.714 249.632 143.474 249.372 L 134.124 239.322 C 133.904 239.082 133.774 238.762 133.774 238.432 L 133.774 200.932 C 133.774 200.602 133.904 200.292 134.124 200.052 L 143.474 189.992 C 143.714 189.732 144.064 189.582 144.424 189.582 L 186.984 189.582 C 187.344 189.582 187.694 189.732 187.934 189.992 Z" style="fill-rule: nonzero; paint-order: fill; fill: url('#gradient-0'); fill-opacity: 0.77;"/>
</svg>